General
General
Format : Matroska
Format version : Version 2
File size : 1.48 GiB
Duration : 2h 18mn
Overall bit rate : 1 532 Kbps
Encoded date : UTC 2011-12-30 14:23:51
Writing application : mkvmerge v4.3.0 ('Escape from the Island') built on Sep 5 2010 10:30:51
Writing library : libebml v1.0.0 + libmatroska v1.0.0

Video
ID : 1
Format : AVC
Format/Info : Advanced Video Codec
Format profile : High@L4.0
Format settings, CABAC : Yes
Format settings, ReFrames : 4 frames
Muxing mode : Header stripping
Codec ID : V_MPEG4/ISO/AVC
Duration : 2h 18mn
Bit rate : 1 299 Kbps
Width : 1 920 pixels
Height : 800 pixels
Display aspect ratio : 2.40:1
Frame rate : 25.000 fps
Original frame rate : 23.976 fps
Color space : YUV
Chroma subsampling : 4:2:0
Bit depth : 8 bits
Scan type : Progressive
Bits/(Pixel*Frame) : 0.034
Stream size : 1.28 GiB (87%)
Title : {James Bond 007} Casino Royale 1080p (Dual Audio)[Hindi-English]~JAGJIT639~KHARAY-=KSRR=-


Audio #1
ID : 2
Format : MPEG Audio
Format version : Version 1
Format profile : Layer 3
Mode : Joint stereo
Mode extension : MS Stereo
Muxing mode : Header stripping
Codec ID : A_MPEG/L3
Codec ID/Hint : MP3
Duration : 2h 18mn
Bit rate mode : Constant
Bit rate : 128 Kbps
Channel(s) : 2 channels
Sampling rate : 44.1 KHz
Compression mode : Lossy
Stream size : 127 MiB (8%)
Title : Hindi Audio -=KSRR=-
Writing library : LAME3.98.2
Language : Hindi

Audio #2
ID : 3
Format : MPEG Audio
Format version : Version 2
Format profile : Layer 3
Mode : Joint stereo
Mode extension : MS Stereo
Muxing mode : Header stripping
Codec ID : A_MPEG/L3
Codec ID/Hint : MP3
Duration : 2h 18mn
Bit rate mode : Constant
Bit rate : 48.0 Kbps
Channel(s) : 2 channels
Sampling rate : 22.05 KHz
Compression mode : Lossy
Stream size : 47.5 MiB (3%)
Title : English Audio -=KSRR=-
Writing library : LAME3.98.4UUUUUULAME
Language : English


Screens
 
http://www.postimg.com/57000/photo-56223.jpg
 
http://www.postimg.com/57000/photo-56224.jpg
 
http://www.postimg.com/57000/photo-56225.jpg
 
http://www.postimg.com/57000/photo-56228.jpg